# Blender v2.79 (sub 0) OBJ File: ''
# www.blender.org
mtllib humanoid.mtl
o Cube
v 1.000000 -1.000000 -1.000000
v 1.000000 -1.000000 1.000000
v -1.000000 -1.000000 1.000000
v -1.000000 -1.000000 -1.000000
v 1.000000 1.000000 -0.999999
v 0.999999 1.000000 1.000001
v -1.000000 1.000000 1.000000
v -1.000000 1.000000 -1.000000
v -1.000000 3.885712 -1.000000
v -1.000000 3.885712 1.000000
v 0.999999 3.885712 1.000001
v 1.000000 3.885712 -0.999999
v -1.000000 5.467037 -1.000000
v -1.000000 5.467037 1.000000
v 0.999999 5.467037 1.000001
v 1.000000 5.467037 -0.999999
v -1.000000 6.460060 -1.000000
v -1.000000 6.460060 1.000000
v 0.999999 6.460060 1.000001
v 1.000000 6.460060 -0.999999
v -1.000000 7.625338 -1.000000
v -1.000000 7.625338 1.000000
v 0.999999 7.625338 1.000001
v 1.000000 7.625338 -0.999999
v -1.000000 8.730368 -1.000000
v -1.000000 8.730368 1.000000
v 0.999999 8.730368 1.000001
v 1.000000 8.730368 -0.999999
v -1.000000 9.779385 -1.000000
v -1.000000 9.779385 1.000000
v 0.999999 9.779385 1.000001
v 1.000000 9.779385 -0.999999
v -1.000000 10.592967 -1.000000
v -1.000000 10.592967 1.000000
v 0.999999 10.592967 1.000001
v 1.000000 10.592967 -0.999999
v -3.001337 -1.000000 0.999999
v -3.001336 -1.000000 -1.000001
v -3.001337 1.000000 0.999999
v -3.001336 1.000000 -1.000000
v -4.411431 -1.000000 0.999999
v -4.411431 -1.000000 -1.000001
v -4.411431 1.000000 0.999999
v -4.411431 1.000000 -1.000001
v -5.546771 -1.000000 0.999999
v -5.546771 -1.000000 -1.000001
v -5.546771 1.000000 0.999999
v -5.546771 1.000000 -1.000001
v -3.001337 -6.145901 0.999999
v -3.001336 -6.145901 -1.000001
v -4.411431 -6.145901 0.999999
v -4.411431 -6.145901 -1.000001
v -5.546771 -6.145901 0.999999
v -5.546771 -6.145901 -1.000001
v 5.558634 -1.000000 -0.999999
v 5.558634 -1.000000 1.000001
v 5.558634 1.000000 -0.999998
v 5.558633 1.000000 1.000002
v 1.000000 -6.327860 -1.000000
v 1.000000 -6.327860 1.000000
v 5.558634 -6.327860 -0.999999
v 5.558634 -6.327860 1.000001
v 6.499911 7.625338 1.000004
v 6.499912 7.625338 -0.999996
v 6.499911 8.730368 1.000004
v 6.499912 8.730368 -0.999996
v -6.014049 7.625338 -1.000001
v -6.014049 7.625338 0.999999
v -6.014049 8.730368 -1.000001
v -6.014049 8.730368 0.999999
v -1.000000 11.334963 -1.000000
v -1.000000 11.334963 1.000000
v 0.999999 11.334963 1.000001
v 1.000000 11.334963 -0.999999
v -1.000000 12.724777 -1.000000
v -1.000000 12.724777 1.000000
v 0.999999 12.724777 1.000001
v 1.000000 12.724777 -0.999999
v -1.000000 14.190531 -1.000000
v -1.000000 14.190531 1.000000
v 0.999999 14.190531 1.000001
v 1.000000 14.190531 -0.999999
v 7.616668 7.625338 1.000004
v 7.616669 7.625338 -0.999996
v 7.616668 8.730368 1.000004
v 7.616669 8.730368 -0.999996
v 8.991571 7.625338 1.000005
v 8.991573 7.625338 -0.999995
v 8.991571 8.730368 1.000005
v 8.991573 8.730368 -0.999995
v 10.422312 7.625338 1.000006
v 10.422314 7.625338 -0.999994
v 10.422312 8.730368 1.000006
v 10.422314 8.730368 -0.999994
v 10.973200 7.625338 1.000007
v 10.973202 7.625338 -0.999993
v 10.973200 8.730368 1.000007
v 10.973202 8.730368 -0.999993
v -7.848928 7.625338 -1.000002
v -7.848928 7.625338 0.999998
v -7.848928 8.730368 -1.000002
v -7.848928 8.730368 0.999998
v -9.305792 7.625338 -1.000002
v -9.305792 7.625338 0.999998
v -9.305792 8.730368 -1.000002
v -9.305792 8.730368 0.999998
v -10.258076 7.625338 -1.000002
v -10.258076 7.625338 0.999998
v -10.258076 8.730368 -1.000002
v -10.258076 8.730368 0.999998
v -11.067403 7.625338 -1.000002
v -11.067403 7.625338 0.999998
v -11.067403 8.730368 -1.000002
v -11.067403 8.730368 0.999998
vn 0.0000 1.0000 0.0000
vn -0.0000 0.0000 1.0000
vn 0.0000 -1.0000 0.0000
vn 0.0000 0.0000 -1.0000
vn -1.0000 0.0000 -0.0000
vn 1.0000 0.0000 0.0000
usemtl Material
s off
f 1//1 4//1 3//1 2//1
f 8//2 5//2 12//2 9//2
f 6//3 5//3 57//3 58//3
f 2//4 3//4 7//4 6//4
f 4//2 8//2 40//2 38//2
f 5//2 8//2 4//2 1//2
f 9//2 12//2 16//2 13//2
f 5//5 6//5 11//5 12//5
f 6//4 7//4 10//4 11//4
f 7//6 8//6 9//6 10//6
f 14//6 13//6 17//6 18//6
f 10//6 9//6 13//6 14//6
f 12//5 11//5 15//5 16//5
f 11//4 10//4 14//4 15//4
f 20//5 19//5 23//5 24//5
f 16//5 15//5 19//5 20//5
f 15//4 14//4 18//4 19//4
f 13//2 16//2 20//2 17//2
f 21//2 24//2 28//2 25//2
f 19//4 18//4 22//4 23//4
f 17//2 20//2 24//2 21//2
f 18//6 17//6 21//6 22//6
f 28//5 27//5 31//5 32//5
f 21//2 25//2 69//2 67//2
f 23//4 27//4 65//4 63//4
f 23//4 22//4 26//4 27//4
f 31//4 30//4 34//4 35//4
f 27//4 26//4 30//4 31//4
f 25//2 28//2 32//2 29//2
f 26//6 25//6 29//6 30//6
f 33//2 36//2 74//2 71//2
f 29//2 32//2 36//2 33//2
f 30//6 29//6 33//6 34//6
f 32//5 31//5 35//5 36//5
f 40//3 39//3 43//3 44//3
f 3//1 4//1 38//1 37//1
f 7//4 3//4 37//4 39//4
f 8//3 7//3 39//3 40//3
f 42//2 44//2 48//2 46//2
f 39//4 37//4 41//4 43//4
f 38//2 40//2 44//2 42//2
f 41//4 37//4 49//4 51//4
f 45//6 46//6 48//6 47//6
f 46//6 45//6 53//6 54//6
f 44//3 43//3 47//3 48//3
f 43//4 41//4 45//4 47//4
f 49//1 50//1 52//1 51//1
f 51//1 52//1 54//1 53//1
f 42//2 46//2 54//2 52//2
f 38//2 42//2 52//2 50//2
f 45//4 41//4 51//4 53//4
f 37//5 38//5 50//5 49//5
f 55//5 56//5 58//5 57//5
f 2//4 6//4 58//4 56//4
f 5//2 1//2 55//2 57//2
f 56//5 55//5 61//5 62//5
f 59//1 60//1 62//1 61//1
f 55//2 1//2 59//2 61//2
f 1//6 2//6 60//6 59//6
f 2//4 56//4 62//4 60//4
f 66//2 64//2 84//2 86//2
f 27//3 28//3 66//3 65//3
f 24//1 23//1 63//1 64//1
f 28//2 24//2 64//2 66//2
f 67//2 69//2 101//2 99//2
f 22//1 21//1 67//1 68//1
f 26//4 22//4 68//4 70//4
f 25//3 26//3 70//3 69//3
f 74//5 73//5 77//5 78//5
f 34//6 33//6 71//6 72//6
f 36//5 35//5 73//5 74//5
f 35//4 34//4 72//4 73//4
f 75//2 78//2 82//2 79//2
f 73//4 72//4 76//4 77//4
f 71//2 74//2 78//2 75//2
f 72//6 71//6 75//6 76//6
f 82//3 81//3 80//3 79//3
f 76//6 75//6 79//6 80//6
f 78//5 77//5 81//5 82//5
f 77//4 76//4 80//4 81//4
f 83//4 85//4 89//4 87//4
f 64//1 63//1 83//1 84//1
f 63//4 65//4 85//4 83//4
f 65//3 66//3 86//3 85//3
f 90//2 88//2 92//2 94//2
f 85//3 86//3 90//3 89//3
f 86//2 84//2 88//2 90//2
f 84//1 83//1 87//1 88//1
f 91//4 93//4 97//4 95//4
f 88//1 87//1 91//1 92//1
f 87//4 89//4 93//4 91//4
f 89//3 90//3 94//3 93//3
f 96//5 95//5 97//5 98//5
f 93//3 94//3 98//3 97//3
f 94//2 92//2 96//2 98//2
f 92//1 91//1 95//1 96//1
f 99//2 101//2 105//2 103//2
f 68//1 67//1 99//1 100//1
f 70//4 68//4 100//4 102//4
f 69//3 70//3 102//3 101//3
f 106//4 104//4 108//4 110//4
f 100//1 99//1 103//1 104//1
f 102//4 100//4 104//4 106//4
f 101//3 102//3 106//3 105//3
f 107//2 109//2 113//2 111//2
f 105//3 106//3 110//3 109//3
f 103//2 105//2 109//2 107//2
f 104//1 103//1 107//1 108//1
f 112//6 111//6 113//6 114//6
f 108//1 107//1 111//1 112//1
f 110//4 108//4 112//4 114//4
f 109//3 110//3 114//3 113//3
